HIERARCHY
ROOT Joint1
{
	OFFSET 0.000000 0.000000 0.000000
	CHANNELS 6 Xposition Yposition Zposition Xrotation Yrotation Zrotation
	JOINT Joint2
	{
		OFFSET -0.000000 0.000000 1.456275
		CHANNELS 6 Xposition Yposition Zposition Xrotation Yrotation Zrotation
		JOINT Joint3
		{
			OFFSET -0.000000 0.000002 1.471446
			CHANNELS 6 Xposition Yposition Zposition Xrotation Yrotation Zrotation
			JOINT Joint4
			{
				OFFSET 0.625745 0.000000 0.917755
				CHANNELS 6 Xposition Yposition Zposition Xrotation Yrotation Zrotation
				JOINT Joint5
				{
					OFFSET -0.629534 0.000001 0.940221
					CHANNELS 6 Xposition Yposition Zposition Xrotation Yrotation Zrotation
					JOINT Joint6
					{
						OFFSET -0.000001 0.113772 1.960660
						CHANNELS 6 Xposition Yposition Zposition Xrotation Yrotation Zrotation
						JOINT Joint7
						{
							OFFSET -0.669733 -0.113771 0.388340
							CHANNELS 6 Xposition Yposition Zposition Xrotation Yrotation Zrotation
							End Site
							{
								OFFSET 0.005509 0.005509 0.438980
							}
						}
					}
				}
			}
		}
	}
}
MOTION
Frames: 19
Frame Time: 0.041667
0.000000 0.000000 0.000000 -0.000000 1.019410 39.463296 -0.000000 -0.000000 1.456275 -0.000000 -3.384837 -0.000001 -0.000000 0.000002 1.471445 -0.000003 -1.133455 60.086540 0.625745 0.000000 0.917755 0.000005 120.227626 -0.000000 -0.629533 0.000001 0.940221 0.000001 1.709735 -59.434599 -0.000001 0.113772 1.960661 -88.303882 -213.561150 0.000002 -0.669733 -0.113771 0.388340 -1.372899 3.317525 -184.044420 
0.000000 0.000000 0.000000 -0.000000 1.019410 38.267398 -0.000000 0.000000 1.456275 -0.000000 -4.645358 -0.000003 -0.000000 0.000002 1.471446 -0.000003 -1.133455 58.264888 0.625745 0.000000 0.917755 0.000004 120.675974 -0.000002 -0.629534 0.000001 0.940221 0.000000 1.709737 -57.634161 -0.000001 0.113772 1.960660 -88.303875 -215.272304 0.000002 -0.669733 -0.113771 0.388340 -1.356086 3.331777 -185.286080 
0.000000 0.000000 0.000000 -0.000000 1.019410 37.071507 -0.000000 -0.000000 1.456275 -0.000000 -5.905877 0.000001 -0.000000 0.000002 1.471445 -0.000002 -1.133455 56.443232 0.625744 0.000000 0.917755 0.000004 121.124307 -0.000002 -0.629534 0.000001 0.940221 0.000000 1.709735 -55.833719 -0.000001 0.113772 1.960661 -88.303875 -216.983444 0.000001 -0.669733 -0.113771 0.388340 -1.338968 3.345660 -186.527753 
0.000000 0.000000 0.000000 -0.000000 1.019410 35.875606 -0.000000 0.000000 1.456275 0.000000 -7.166400 0.000002 -0.000000 0.000002 1.471445 -0.000002 -1.133455 54.621579 0.625745 0.000000 0.917756 0.000004 121.572668 -0.000002 -0.629534 0.000001 0.940221 0.000001 1.709736 -54.033288 -0.000001 0.113772 1.960661 -88.303882 -218.694598 0.000002 -0.669733 -0.113771 0.388340 -1.321552 3.359171 -187.769454 
0.000000 0.000000 0.000000 -0.000000 1.019410 34.679705 -0.000000 0.000000 1.456275 -0.000000 -8.426920 -0.000003 -0.000000 0.000002 1.471446 -0.000002 -1.133456 52.799917 0.625745 0.000000 0.917755 0.000003 122.021015 -0.000001 -0.629534 0.000001 0.940221 -0.000000 1.709735 -52.232851 -0.000001 0.113772 1.960661 -88.303875 -220.405751 0.000002 -0.669733 -0.113771 0.388340 -1.303847 3.372300 -189.011197 
0.000000 0.000000 0.000000 -0.000000 1.019410 33.483811 -0.000000 0.000000 1.456275 -0.000000 -9.687439 0.000000 -0.000000 0.000002 1.471446 -0.000001 -1.133456 50.978261 0.625745 0.000000 0.917755 0.000007 122.469349 -0.000002 -0.629534 0.000001 0.940221 -0.000000 1.709737 -50.432416 -0.000001 0.113772 1.960661 -88.303882 -222.116878 0.000003 -0.669733 -0.113771 0.388340 -1.285860 3.385044 -190.252925 
0.000000 0.000000 0.000000 -0.000000 1.019410 32.287920 -0.000000 -0.000000 1.456275 -0.000000 -10.947957 0.000000 -0.000000 0.000002 1.471446 -0.000002 -1.133455 49.156626 0.625745 0.000000 0.917755 0.000006 122.917696 -0.000003 -0.629533 0.000001 0.940221 -0.000001 1.709735 -48.631985 -0.000001 0.113772 1.960659 -88.303875 -223.828018 0.000001 -0.669733 -0.113771 0.388340 -1.267602 3.397396 -191.494681 
0.000000 0.000000 0.000000 -0.000000 1.019410 31.092018 -0.000000 0.000000 1.456275 -0.000000 -12.208480 0.000001 -0.000000 0.000002 1.471446 -0.000002 -1.133456 47.334953 0.625745 0.000000 0.917754 0.000002 123.366044 -0.000000 -0.629534 0.000001 0.940221 -0.000000 1.709735 -46.831547 -0.000001 0.113772 1.960661 -88.303875 -225.539185 0.000004 -0.669734 -0.113771 0.388340 -1.249080 3.409353 -192.736464 
0.000000 0.000000 0.000000 -0.000000 1.019410 29.896100 -0.000000 -0.000000 1.456275 0.000001 -13.469021 -0.000001 -0.000000 0.000002 1.471446 -0.000001 -1.133455 45.513276 0.625745 0.000000 0.917755 0.000006 123.814391 -0.000002 -0.629534 0.000001 0.940222 -0.000000 1.709736 -45.031085 -0.000001 0.113771 1.960660 -88.303882 -227.250366 -0.000003 -0.669733 -0.113771 0.388340 -1.230301 3.420906 -193.978288 
0.000000 0.000000 0.000000 -0.000000 1.019410 28.700226 -0.000000 -0.000000 1.456275 -0.000000 -14.729522 -0.000000 -0.000000 0.000002 1.471446 -0.000002 -1.133456 43.691644 0.625745 0.000000 0.917755 0.000002 124.262724 -0.000005 -0.629534 0.000001 0.940221 0.000003 1.709736 -43.230671 -0.000001 0.113772 1.960660 -88.303882 -228.961492 -0.000003 -0.669732 -0.113771 0.388340 -1.211275 3.432048 -195.220084 
0.000000 0.000000 0.000000 -0.000000 1.019410 27.504397 -0.000000 -0.000000 1.456275 -0.000001 -15.989968 0.000001 -0.000000 0.000002 1.471446 -0.000002 -1.133456 41.870094 0.625745 0.000000 0.917755 0.000004 124.711031 -0.000005 -0.629534 0.000001 0.940221 -0.000001 1.709735 -41.430343 -0.000001 0.113772 1.960660 -88.303875 -230.672536 -0.000001 -0.669733 -0.113771 0.388340 -1.192014 3.442774 -196.461867 
0.000000 0.000000 0.000000 -0.000000 1.019410 26.308427 -0.000000 0.000000 1.456275 -0.000001 -17.250565 0.000001 -0.000000 0.000002 1.471446 -0.000001 -1.133458 40.048336 0.625745 0.000000 0.917755 0.000010 125.159405 -0.000007 -0.629534 0.000001 0.940221 0.000001 1.709734 -39.629803 -0.000001 0.113772 1.960660 -88.303882 -232.383799 -0.000001 -0.669733 -0.113771 0.388340 -1.172519 3.453083 -197.703801 
0.000000 0.000000 0.000000 -0.000000 1.019410 25.112270 -0.000000 0.000000 1.456275 -0.000000 -18.511361 0.000001 -0.000000 0.000002 1.471446 -0.000001 -1.133456 38.226281 0.625745 0.000000 0.917755 0.000006 125.607848 -0.000005 -0.629534 0.000001 0.940221 0.000001 1.709736 -37.828982 -0.000001 0.113773 1.960660 -88.303875 -234.095308 0.000001 -0.669733 -0.113771 0.388340 -1.152808 3.462971 -198.945925 
0.000000 0.000000 0.000000 -0.000000 1.019410 23.916635 -0.000000 0.000000 1.456275 -0.000000 -19.771606 -0.000002 -0.000000 0.000002 1.471446 -0.000002 -1.133456 36.405031 0.625745 0.000000 0.917755 -0.000001 126.056086 -0.000001 -0.629534 0.000001 0.940221 0.000002 1.709736 -36.028934 -0.000001 0.113772 1.960661 -88.303868 -235.806079 0.000004 -0.669734 -0.113771 0.388340 -1.132887 3.472426 -200.187544 
0.000000 0.000000 0.000000 -0.000000 1.019410 22.721703 -0.000000 0.000000 1.456275 -0.000001 -21.031097 -0.000000 -0.000000 0.000002 1.471445 -0.000001 -1.133454 34.584851 0.625745 0.000000 0.917754 -0.000001 126.504065 0.000000 -0.629534 0.000001 0.940221 0.000002 1.709734 -34.229961 -0.000002 0.113772 1.960661 -88.303875 -237.515840 0.000006 -0.669734 -0.113771 0.388339 -1.112789 3.481439 -201.428439 
0.000000 0.000000 0.000000 -0.000000 1.019410 21.524837 -0.000000 0.000000 1.456275 -0.000000 -22.292650 0.000000 -0.000001 0.000002 1.471446 -0.000001 -1.133457 32.761716 0.625744 0.000000 0.917755 0.000002 126.952781 0.000001 -0.629533 0.000001 0.940221 0.000001 1.709733 -32.428058 -0.000001 0.113772 1.960661 -88.303875 -239.228359 0.000003 -0.669733 -0.113771 0.388340 -1.092453 3.490033 -202.671370 
0.000000 0.000000 0.000000 -0.000000 1.019410 20.325299 -0.000000 -0.000000 1.456275 0.000000 -23.557005 -0.000001 -0.000001 0.000002 1.471446 -0.000001 -1.133457 30.934518 0.625745 0.000000 0.917755 0.000000 127.402494 -0.000001 -0.629533 0.000001 0.940221 0.000000 1.709737 -30.622149 -0.000001 0.113772 1.960660 -88.303875 -240.944731 0.000006 -0.669733 -0.113771 0.388339 -1.071896 3.498203 -203.917060 
0.000000 0.000000 0.000000 -0.000000 1.019410 19.133042 -0.000000 0.000000 1.456275 -0.000000 -24.813691 -0.000000 -0.000000 0.000002 1.471445 -0.000001 -1.133456 29.118404 0.625745 0.000000 0.917755 -0.000001 127.849462 -0.000001 -0.629533 0.000001 0.940221 -0.000004 1.709733 -28.827186 -0.000001 0.113772 1.960660 -88.303875 -242.650694 -0.000003 -0.669733 -0.113771 0.388340 -1.051292 3.505874 -205.155237 
0.000000 0.000000 0.000000 -0.000000 1.019410 17.950726 -0.000000 0.000000 1.456275 0.000000 -26.059897 -0.000000 -0.000000 0.000002 1.471445 -0.000001 -1.133455 27.317442 0.625745 0.000000 0.917755 -0.000004 128.292714 -0.000001 -0.629534 0.000001 0.940221 -0.000001 1.709735 -27.047201 -0.000001 0.113772 1.960661 -88.303882 -244.342395 0.000003 -0.669733 -0.113771 0.388340 -1.030698 3.513048 -206.383113 
